<svg
    xmlns="http://www.w3.org/2000/svg"
    viewBox="0 0 20 20"
    id="ic_person">
    <path
        id="path"
        d="M 7.5 9.167 C 8.159 9.167 8.804 8.971 9.352 8.605 C 9.9 8.239 10.327 7.718 10.58 7.109 C 10.832 6.5 10.898 5.83 10.769 5.183 C 10.641 4.536 10.323 3.942 9.857 3.476 C 9.391 3.01 8.797 2.693 8.15 2.564 C 7.504 2.435 6.833 2.501 6.224 2.754 C 5.615 3.006 5.095 3.433 4.728 3.981 C 4.362 4.53 4.167 5.174 4.167 5.833 C 4.167 6.717 4.518 7.565 5.143 8.19 C 5.768 8.816 6.616 9.167 7.5 9.167 Z"
        fill="#61688b"/>
    <path
        id="path_1"
        d="M 14.167 10.833 C 14.661 10.833 15.145 10.687 15.556 10.412 C 15.967 10.137 16.287 9.747 16.476 9.29 C 16.666 8.833 16.715 8.331 16.619 7.846 C 16.522 7.361 16.284 6.915 15.934 6.566 C 15.585 6.216 15.139 5.978 14.654 5.881 C 14.169 5.785 13.667 5.834 13.21 6.024 C 12.753 6.213 12.363 6.533 12.088 6.944 C 11.813 7.356 11.667 7.839 11.667 8.333 C 11.667 8.996 11.93 9.632 12.399 10.101 C 12.868 10.57 13.504 10.833 14.167 10.833 Z"
        fill="#61688b"/>
    <path
        id="path_2"
        d="M 17.5 16.667 C 17.721 16.667 17.933 16.579 18.089 16.423 C 18.245 16.266 18.333 16.054 18.333 15.833 C 18.333 15.055 18.114 14.291 17.701 13.631 C 17.289 12.97 16.7 12.438 16 12.095 C 15.301 11.753 14.52 11.613 13.745 11.692 C 12.97 11.771 12.233 12.065 11.617 12.542 C 10.8 11.729 9.762 11.175 8.632 10.952 C 7.501 10.729 6.33 10.845 5.266 11.286 C 4.202 11.727 3.292 12.474 2.651 13.431 C 2.011 14.389 1.668 15.515 1.667 16.667 C 1.667 16.888 1.754 17.1 1.911 17.256 C 2.067 17.412 2.279 17.5 2.5 17.5 L 12.5 17.5 C 12.721 17.5 12.933 17.412 13.089 17.256 C 13.245 17.1 13.333 16.888 13.333 16.667"
        fill="#61688b"/>
</svg>
