<svg
    xmlns="http://www.w3.org/2000/svg"
    viewBox="0 0 20 20"
    id="ic_star">
    <path
        id="path"
        d="M 14.633 17.5 C 14.5 17.5 14.369 17.469 14.25 17.408 L 10 15.183 L 5.75 17.408 C 5.612 17.481 5.456 17.513 5.301 17.502 C 5.145 17.49 4.996 17.436 4.87 17.343 C 4.745 17.252 4.647 17.126 4.589 16.981 C 4.531 16.837 4.514 16.678 4.542 16.525 L 5.375 11.833 L 1.942 8.5 C 1.835 8.393 1.759 8.259 1.722 8.112 C 1.685 7.965 1.689 7.811 1.733 7.667 C 1.782 7.519 1.871 7.387 1.99 7.287 C 2.109 7.187 2.254 7.122 2.408 7.1 L 7.158 6.408 L 9.25 2.133 C 9.318 1.992 9.425 1.874 9.557 1.79 C 9.69 1.707 9.843 1.663 10 1.663 C 10.156 1.663 10.31 1.707 10.443 1.79 C 10.575 1.874 10.682 1.992 10.75 2.133 L 12.867 6.4 L 17.617 7.092 C 17.771 7.114 17.916 7.178 18.035 7.279 C 18.154 7.379 18.243 7.51 18.292 7.658 C 18.336 7.803 18.34 7.957 18.303 8.104 C 18.266 8.251 18.191 8.385 18.083 8.492 L 14.65 11.825 L 15.483 16.517 C 15.513 16.673 15.498 16.834 15.438 16.982 C 15.379 17.13 15.279 17.257 15.15 17.35 C 14.999 17.456 14.817 17.509 14.633 17.5 Z"
        fill="#61688b"/>
</svg>
